<svg version="1.1" xmlns="http://www.w3.org/2000/svg" viewBox="0 0 1600 1600">
<path d="M0 0 C528 0 1056 0 1600 0 C1600 528 1600 1056 1600 1600 C1072 1600 544 1600 0 1600 C0 1072 0 544 0 0 Z " fill="#071E6E" transform="translate(0,0)"></path>
<path d="M0 0 C139.26 0 278.52 0 422 0 C422 139.26 422 278.52 422 422 C421.34 433.55 420.68 445.1 420 457 C419.01 465.58 418.02 474.16 417 483 C415.35 491.91 413.7 500.82 412 510 C408.04 525.84 408.04 525.84 404 542 C400.37 552.56 396.74 563.12 393 574 C388.71 583.9 384.42 593.8 380 604 C375.71 612.25 371.42 620.5 367 629 C362.38 636.59 357.76 644.18 353 652 C349.04 657.61 345.08 663.22 341 669 C336.71 674.61 332.42 680.22 328 686 C324.04 690.62 320.08 695.24 316 700 C312.37 703.96 308.74 707.92 305 712 C297.41 719.59 289.82 727.18 282 735 C278.37 737.97 274.74 740.94 271 744 C266.71 747.63 262.42 751.26 258 755 C252.06 759.29 246.12 763.58 240 768 C231.59 773.44 231.59 773.44 223 779 C215.58 783.45 215.58 783.45 208 788 C199.09 792.62 190.18 797.24 181 802 C173.74 805.3 166.48 808.6 159 812 C149.76 815.3 140.52 818.6 131 822 C117.63 825.96 117.63 825.96 104 830 C93.11 832.31 82.22 834.62 71 837 C61.1 838.32 51.2 839.64 41 841 C37.04 841.33 33.08 841.66 29 842 C9.86 842 -9.28 842 -29 842 C-40.88 840.68 -52.76 839.36 -65 838 C-80.35 835.03 -80.35 835.03 -96 832 C-105.57 829.36 -115.14 826.72 -125 824 C-134.57 820.7 -144.14 817.4 -154 814 C-162.25 810.37 -170.5 806.74 -179 803 C-186.92 799.04 -194.84 795.08 -203 791 C-208.61 787.7 -214.22 784.4 -220 781 C-231.88 773.08 -231.88 773.08 -244 765 C-249.28 761.04 -254.56 757.08 -260 753 C-265.44 748.55 -265.44 748.55 -271 744 C-275.62 740.04 -280.24 736.08 -285 732 C-294.24 722.76 -303.48 713.52 -313 704 C-315.97 700.37 -318.94 696.74 -322 693 C-325.63 688.71 -329.26 684.42 -333 680 C-337.29 674.06 -341.58 668.12 -346 662 C-349.3 657.05 -352.6 652.1 -356 647 C-358.97 642.05 -361.94 637.1 -365 632 C-368.96 624.74 -372.92 617.48 -377 610 C-379.97 603.73 -382.94 597.46 -386 591 C-389.63 581.76 -393.26 572.52 -397 563 C-401.45 549.14 -401.45 549.14 -406 535 C-408.64 523.78 -411.28 512.56 -414 501 C-415.32 492.75 -416.64 484.5 -418 476 C-419.49 459.17 -419.49 459.17 -421 442 C-421 428.47 -421 414.94 -421 401 C-420.01 389.78 -419.02 378.56 -418 367 C-415.52 352.15 -415.52 352.15 -413 337 C-410.03 325.12 -407.06 313.24 -404 301 C-400.37 290.44 -396.74 279.88 -393 269 C-388.71 259.1 -384.42 249.2 -380 239 C-375.71 230.75 -371.42 222.5 -367 214 C-362.38 206.41 -357.76 198.82 -353 191 C-349.04 185.39 -345.08 179.78 -341 174 C-336.71 168.39 -332.42 162.78 -328 157 C-324.04 152.38 -320.08 147.76 -316 143 C-312.37 139.04 -308.74 135.08 -305 131 C-297.41 123.41 -289.82 115.82 -282 108 C-278.37 105.03 -274.74 102.06 -271 99 C-266.71 95.37 -262.42 91.74 -258 88 C-252.06 83.71 -246.12 79.42 -240 75 C-233.4 70.71 -226.8 66.42 -220 62 C-213.07 58.04 -206.14 54.08 -199 50 C-190.42 45.71 -181.84 41.42 -173 37 C-164.09 33.37 -155.18 29.74 -146 26 C-135.77 22.7 -125.54 19.4 -115 16 C-105.76 13.69 -96.52 11.38 -87 9 C-72.64 6.52 -72.64 6.52 -58 4 C-43.64 2.51 -43.64 2.51 -29 1 C-19.43 0.67 -9.86 0.34 0 0 Z " fill="#071E6E" transform="translate(774,400)"></path>
<path d="M0 0 C139.26 0 278.52 0 422 0 C422 139.26 422 278.52 422 422 C421.34 433.55 420.68 445.1 420 457 C419.01 465.58 418.02 474.16 417 483 C415.35 491.91 413.7 500.82 412 510 C408.04 525.84 408.04 525.84 404 542 C400.37 552.56 396.74 563.12 393 574 C388.71 583.9 384.42 593.8 380 604 C375.71 612.25 371.42 620.5 367 629 C362.38 636.59 357.76 644.18 353 652 C349.04 657.61 345.08 663.22 341 669 C336.71 674.61 332.42 680.22 328 686 C324.04 690.62 320.08 695.24 316 700 C312.37 703.96 308.74 707.92 305 712 C297.41 719.59 289.82 727.18 282 735 C278.37 737.97 274.74 740.94 271 744 C266.71 747.63 262.42 751.26 258 755 C252.06 759.29 246.12 763.58 240 768 C231.59 773.44 231.59 773.44 223 779 C215.58 783.45 215.58 783.45 208 788 C199.09 792.62 190.18 797.24 181 802 C173.74 805.3 166.48 808.6 159 812 C149.76 815.3 140.52 818.6 131 822 C117.63 825.96 117.63 825.96 104 830 C93.11 832.31 82.22 834.62 71 837 C61.1 838.32 51.2 839.64 41 841 C37.04 841.33 33.08 841.66 29 842 C9.86 842 -9.28 842 -29 842 C-40.88 840.68 -52.76 839.36 -65 838 C-80.35 835.03 -80.35 835.03 -96 832 C-105.57 829.36 -115.14 826.72 -125 824 C-134.57 820.7 -144.14 817.4 -154 814 C-162.25 810.37 -170.5 806.74 -179 803 C-186.92 799.04 -194.84 795.08 -203 791 C-208.61 787.7 -214.22 784.4 -220 781 C-231.88 773.08 -231.88 773.08 -244 765 C-249.28 761.04 -254.56 757.08 -260 753 C-265.44 748.55 -265.44 748.55 -271 744 C-275.62 740.04 -280.24 736.08 -285 732 C-294.24 722.76 -303.48 713.52 -313 704 C-315.97 700.37 -318.94 696.74 -322 693 C-325.63 688.71 -329.26 684.42 -333 680 C-337.29 674.06 -341.58 668.12 -346 662 C-349.3 657.05 -352.6 652.1 -356 647 C-358.97 642.05 -361.94 637.1 -365 632 C-368.96 624.74 -372.92 617.48 -377 610 C-379.97 603.73 -382.94 597.46 -386 591 C-389.63 581.76 -393.26 572.52 -397 563 C-401.45 549.14 -401.45 549.14 -406 535 C-408.64 523.78 -411.28 512.56 -414 501 C-415.32 492.75 -416.64 484.5 -418 476 C-419.49 459.17 -419.49 459.17 -421 442 C-421 428.47 -421 414.94 -421 401 C-420.01 389.78 -419.02 378.56 -418 367 C-415.52 352.15 -415.52 352.15 -413 337 C-410.03 325.12 -407.06 313.24 -404 301 C-400.37 290.44 -396.74 279.88 -393 269 C-388.71 259.1 -384.42 249.2 -380 239 C-375.71 230.75 -371.42 222.5 -367 214 C-362.38 206.41 -357.76 198.82 -353 191 C-349.04 185.39 -345.08 179.78 -341 174 C-336.71 168.39 -332.42 162.78 -328 157 C-324.04 152.38 -320.08 147.76 -316 143 C-312.37 139.04 -308.74 135.08 -305 131 C-297.41 123.41 -289.82 115.82 -282 108 C-278.37 105.03 -274.74 102.06 -271 99 C-266.71 95.37 -262.42 91.74 -258 88 C-252.06 83.71 -246.12 79.42 -240 75 C-233.4 70.71 -226.8 66.42 -220 62 C-213.07 58.04 -206.14 54.08 -199 50 C-190.42 45.71 -181.84 41.42 -173 37 C-164.09 33.37 -155.18 29.74 -146 26 C-135.77 22.7 -125.54 19.4 -115 16 C-105.76 13.69 -96.52 11.38 -87 9 C-72.64 6.52 -72.64 6.52 -58 4 C-43.64 2.51 -43.64 2.51 -29 1 C-19.43 0.67 -9.86 0.34 0 0 Z M-52 131 C-59.92 131.99 -67.84 132.98 -76 134 C-84.25 135.65 -92.5 137.3 -101 139 C-108.92 141.31 -116.84 143.62 -125 146 C-132.92 148.97 -140.84 151.94 -149 155 C-161.38 160.94 -161.38 160.94 -174 167 C-179.61 170.3 -185.22 173.6 -191 177 C-197.27 181.29 -203.54 185.58 -210 190 C-214.62 193.63 -219.24 197.26 -224 201 C-227.3 203.97 -230.6 206.94 -234 210 C-236.64 212.31 -239.28 214.62 -242 217 C-246.29 221.29 -250.58 225.58 -255 230 C-258.47 233.96 -258.47 233.96 -262 238 C-265.96 242.95 -269.92 247.9 -274 253 C-277.96 258.61 -281.92 264.22 -286 270 C-288.97 274.95 -291.94 279.9 -295 285 C-298.96 292.59 -302.92 300.18 -307 308 C-309.97 314.93 -312.94 321.86 -316 329 C-318.97 337.91 -321.94 346.82 -325 356 C-326.98 364.58 -328.96 373.16 -331 382 C-332.32 390.91 -333.64 399.82 -335 409 C-335.33 413.29 -335.66 417.58 -336 422 C-336 433.55 -336 445.1 -336 457 C-335.01 466.57 -334.02 476.14 -333 486 C-331.35 494.25 -329.7 502.5 -328 511 C-325.69 519.25 -323.38 527.5 -321 536 C-318.03 543.92 -315.06 551.84 -312 560 C-308.04 568.25 -304.08 576.5 -300 585 C-297.03 590.28 -294.06 595.56 -291 601 C-287.04 606.94 -283.08 612.88 -279 619 C-275.7 623.29 -272.4 627.58 -269 632 C-266.03 635.63 -263.06 639.26 -260 643 C-255.38 647.95 -250.76 652.9 -246 658 C-242.7 661.3 -239.4 664.6 -236 668 C-232.37 670.97 -228.74 673.94 -225 677 C-221.04 680.3 -217.08 683.6 -213 687 C-207.72 690.63 -202.44 694.26 -197 698 C-191.06 701.63 -185.12 705.26 -179 709 C-171.41 712.96 -163.82 716.92 -156 721 C-146.76 724.63 -137.52 728.26 -128 732 C-120.41 734.31 -112.82 736.62 -105 739 C-97.41 740.65 -89.82 742.3 -82 744 C-72.1 745.49 -72.1 745.49 -62 747 C-58.7 747.33 -55.4 747.66 -52 748 C-35.5 748 -19 748 -2 748 C5.92 747.01 13.84 746.02 22 745 C34.38 742.53 34.38 742.53 47 740 C54.92 737.69 62.84 735.38 71 733 C82.88 728.55 82.88 728.55 95 724 C103.25 720.04 111.5 716.08 120 712 C125.61 708.7 131.22 705.4 137 702 C143.27 697.71 149.54 693.42 156 689 C162.93 683.56 162.93 683.56 170 678 C173.3 675.03 176.6 672.06 180 669 C182.64 666.69 185.28 664.38 188 662 C192.29 657.71 196.58 653.42 201 649 C203.31 646.36 205.62 643.72 208 641 C211.96 636.05 215.92 631.1 220 626 C223.96 620.39 227.92 614.78 232 609 C236.46 601.58 236.46 601.58 241 594 C244.96 586.41 248.92 578.82 253 571 C257.45 560.61 257.45 560.61 262 550 C266.45 536.63 266.45 536.63 271 523 C272.98 514.42 274.96 505.84 277 497 C278.32 488.09 279.64 479.18 281 470 C281.33 465.71 281.66 461.42 282 457 C282 445.45 282 433.9 282 422 C281.01 412.43 280.02 402.86 279 393 C276.53 380.62 276.53 380.62 274 368 C271.69 359.75 269.38 351.5 267 343 C264.03 335.08 261.06 327.16 258 319 C254.04 310.75 250.08 302.5 246 294 C243.03 288.72 240.06 283.44 237 278 C233.04 272.06 229.08 266.12 225 260 C221.7 255.71 218.4 251.42 215 247 C212.03 243.37 209.06 239.74 206 236 C201.38 231.05 196.76 226.1 192 221 C188.7 217.7 185.4 214.4 182 211 C176.56 206.55 176.56 206.55 171 202 C167.04 198.7 163.08 195.4 159 192 C153.72 188.37 148.44 184.74 143 181 C137.06 177.37 131.12 173.74 125 170 C117.41 166.04 109.82 162.08 102 158 C92.76 154.37 83.52 150.74 74 147 C66.41 144.69 58.82 142.38 51 140 C43.41 138.35 35.82 136.7 28 135 C21.4 134.01 14.8 133.02 8 132 C4.7 131.67 1.4 131.34 -2 131 C-18.5 131 -35 131 -52 131 Z " fill="#FFFFFF" transform="translate(774,400)"></path>
<path d="M0 0 C10.89 0.5 10.89 0.5 22 1 C35.37 2.98 35.37 2.98 49 5 C60.88 7.97 60.88 7.97 73 11 C80.92 13.97 88.84 16.94 97 20 C103.27 22.97 109.54 25.94 116 29 C122.6 32.96 129.2 36.92 136 41 C141.28 44.96 146.56 48.92 152 53 C156.29 56.63 160.58 60.26 165 64 C175.39 74.39 175.39 74.39 186 85 C190.29 90.61 194.58 96.22 199 102 C202.3 106.95 205.6 111.9 209 117 C211.97 122.28 214.94 127.56 218 133 C220.97 139.27 223.94 145.54 227 152 C230.47 161.4 230.47 161.4 234 171 C235.98 178.59 237.96 186.18 240 194 C241.98 206.38 241.98 206.38 244 219 C244.33 222.63 244.66 226.26 245 230 C245 240.23 245 250.46 245 261 C244.01 269.58 243.02 278.16 242 287 C240.35 294.26 238.7 301.52 237 309 C235.35 314.61 233.7 320.22 232 326 C229.03 333.26 226.06 340.52 223 348 C219.04 355.59 215.08 363.18 211 371 C207.04 376.94 203.08 382.88 199 389 C195.7 393.29 192.4 397.58 189 402 C185.37 405.96 181.74 409.92 178 414 C172.39 419.61 166.78 425.22 161 431 C154.07 436.44 154.07 436.44 147 442 C141.72 445.63 136.44 449.26 131 453 C124.07 456.96 117.14 460.92 110 465 C103.4 467.97 96.8 470.94 90 474 C82.08 476.64 74.16 479.28 66 482 C58.74 483.65 51.48 485.3 44 487 C39.71 487.66 35.42 488.32 31 489 C28.36 489 25.72 489 23 489 C23.99 488.34 24.98 487.68 26 487 C31.94 485.02 37.88 483.04 44 481 C51.26 477.7 58.52 474.4 66 471 C72.6 467.04 79.2 463.08 86 459 C90.29 455.7 94.58 452.4 99 449 C103.62 445.04 108.24 441.08 113 437 C116.63 433.37 120.26 429.74 124 426 C126.97 422.37 129.94 418.74 133 415 C136.63 410.05 140.26 405.1 144 400 C147.63 393.73 151.26 387.46 155 381 C157.97 374.73 160.94 368.46 164 362 C166.64 354.08 169.28 346.16 172 338 C173.65 330.08 175.3 322.16 177 314 C177.66 308.06 178.32 302.12 179 296 C179 286.43 179 276.86 179 267 C178.01 259.08 177.02 251.16 176 243 C174.02 234.75 172.04 226.5 170 218 C166.53 208.6 166.53 208.6 163 199 C157.56 187.62 157.56 187.62 152 176 C148.04 169.73 144.08 163.46 140 157 C135.71 151.72 131.42 146.44 127 141 C124.03 137.7 121.06 134.4 118 131 C115.03 128.03 112.06 125.06 109 122 C103.56 117.54 103.56 117.54 98 113 C92.39 109.04 86.78 105.08 81 101 C74.07 97.04 67.14 93.08 60 89 C52.08 85.7 44.16 82.4 36 79 C27.75 76.69 19.5 74.38 11 72 C5.39 71.01 -0.22 70.02 -6 69 C-19.86 68.01 -19.86 68.01 -34 67 C-44.39 67.5 -44.39 67.5 -55 68 C-61.93 68.99 -68.86 69.98 -76 71 C-83.92 72.98 -91.84 74.96 -100 77 C-106.93 79.64 -113.86 82.28 -121 85 C-128.92 88.96 -128.92 88.96 -137 93 C-144.92 97.46 -144.92 97.46 -153 102 C-158.28 105.96 -163.56 109.92 -169 114 C-173.62 117.96 -178.24 121.92 -183 126 C-186.96 129.96 -190.92 133.92 -195 138 C-200.45 144.93 -200.45 144.93 -206 152 C-209.3 156.62 -212.6 161.24 -216 166 C-220.95 174.91 -220.95 174.91 -226 184 C-228.64 189.61 -231.28 195.22 -234 201 C-236.64 208.92 -239.28 216.84 -242 225 C-242.99 226.98 -242.99 226.98 -244 229 C-244 225.7 -244 222.4 -244 219 C-242.02 206.62 -242.02 206.62 -240 194 C-237.03 182.62 -237.03 182.62 -234 171 C-230.7 162.42 -227.4 153.84 -224 145 C-219.05 135.1 -219.05 135.1 -214 125 C-210.04 118.73 -206.08 112.46 -202 106 C-197.71 100.39 -193.42 94.78 -189 89 C-185.37 85.04 -181.74 81.08 -178 77 C-172.39 71.39 -166.78 65.78 -161 60 C-154.07 54.55 -154.07 54.55 -147 49 C-141.72 45.37 -136.44 41.74 -131 38 C-120.61 32.06 -120.61 32.06 -110 26 C-100.1 21.54 -100.1 21.54 -90 17 C-82.08 14.36 -74.16 11.72 -66 9 C-58.74 7.35 -51.48 5.7 -44 4 C-33.11 2.51 -33.11 2.51 -22 1 C-14.74 0.67 -7.48 0.34 0 0 Z " fill="#FFFFFF" transform="translate(748,596)"></path>
<path d="M0 0 C8.25 0.66 16.5 1.32 25 2 C31.93 3.65 38.86 5.3 46 7 C51.28 8.98 56.56 10.96 62 13 C68.27 16.3 74.54 19.6 81 23 C86.61 26.96 92.22 30.92 98 35 C105.42 41.93 105.42 41.93 113 49 C116.3 52.96 119.6 56.92 123 61 C126.3 65.95 129.6 70.9 133 76 C136.96 83.42 136.96 83.42 141 91 C143.31 97.27 145.62 103.54 148 110 C149.65 117.59 151.3 125.18 153 133 C153.33 136.3 153.66 139.6 154 143 C154 150.59 154 158.18 154 166 C152.51 176.39 152.51 176.39 151 187 C149.02 193.93 147.04 200.86 145 208 C142.36 213.94 139.72 219.88 137 226 C134.03 230.95 131.06 235.9 128 241 C124.7 245.29 121.4 249.58 118 254 C114.04 258.29 110.08 262.58 106 267 C101.71 270.63 97.42 274.26 93 278 C87.39 281.63 81.78 285.26 76 289 C69.07 292.3 62.14 295.6 55 299 C48.4 300.98 41.8 302.96 35 305 C29.06 305.99 23.12 306.98 17 308 C5.78 308 -5.44 308 -17 308 C-19.64 307.67 -22.28 307.34 -25 307 C-24.01 306.34 -23.02 305.68 -22 305 C-16.72 302.69 -11.44 300.38 -6 298 C-1.38 295.03 3.24 292.06 8 289 C12.29 285.04 16.58 281.08 21 277 C24.3 272.38 27.6 267.76 31 263 C33.64 257.72 36.28 252.44 39 247 C40.65 240.73 42.3 234.46 44 228 C44.33 225.69 44.66 223.38 45 221 C45 214.73 45 208.46 45 202 C43.68 195.4 42.36 188.8 41 182 C39.02 177.05 37.04 172.1 35 167 C32.36 162.71 29.72 158.42 27 154 C24.03 150.37 21.06 146.74 18 143 C14.37 139.7 10.74 136.4 7 133 C2.71 130.36 -1.58 127.72 -6 125 C-13.92 121.53 -13.92 121.53 -22 118 C-25.63 117.01 -29.26 116.02 -33 115 C-35.31 114.67 -37.62 114.34 -40 114 C-48.91 114 -57.82 114 -67 114 C-72.61 115.32 -78.22 116.64 -84 118 C-89.28 120.31 -94.56 122.62 -100 125 C-104.62 127.97 -109.24 130.94 -114 134 C-119.94 139.44 -119.94 139.44 -126 145 C-129.3 149.29 -132.6 153.58 -136 158 C-138.64 163.28 -141.28 168.56 -144 174 C-145.65 179.28 -147.3 184.56 -149 190 C-149.66 189.01 -150.32 188.02 -151 187 C-151.99 180.07 -152.98 173.14 -154 166 C-154 158.41 -154 150.82 -154 143 C-153.01 136.07 -152.02 129.14 -151 122 C-149.02 115.07 -147.04 108.14 -145 101 C-142.36 95.06 -139.72 89.12 -137 83 C-134.03 78.05 -131.06 73.1 -128 68 C-123.05 61.57 -123.05 61.57 -118 55 C-114.04 50.71 -110.08 46.42 -106 42 C-101.71 38.37 -97.42 34.74 -93 31 C-87.39 27.37 -81.78 23.74 -76 20 C-69.07 16.7 -62.14 13.4 -55 10 C-48.4 8.02 -41.8 6.04 -35 4 C-29.06 3.01 -23.12 2.02 -17 1 C-8.59 0.5 -8.59 0.5 0 0 Z " fill="#FFFFFF" transform="translate(712,725)"></path>
<path d="M0 0 C5.45 0.99 5.45 0.99 11 2 C13.64 3.32 16.28 4.64 19 6 C21.64 8.31 24.28 10.62 27 13 C29.97 18.94 29.97 18.94 33 25 C33.5 26.98 33.5 26.98 34 29 C34 32.63 34 36.26 34 40 C32.68 43.63 31.36 47.26 30 51 C28.02 53.64 26.04 56.28 24 59 C21.36 60.98 18.72 62.96 16 65 C13.36 65.99 10.72 66.98 8 68 C2.72 68 -2.56 68 -8 68 C-11.3 66.68 -14.6 65.36 -18 64 C-20.97 61.36 -23.94 58.72 -27 56 C-28.98 52.04 -30.96 48.08 -33 44 C-33.33 42.68 -33.66 41.36 -34 40 C-34 36.37 -34 32.74 -34 29 C-32.02 23.55 -32.02 23.55 -30 18 C-28.02 15.36 -26.04 12.72 -24 10 C-21.36 8.02 -18.72 6.04 -16 4 C-13.36 3.01 -10.72 2.02 -8 1 C-5.36 0.67 -2.72 0.34 0 0 Z " fill="#FFFFFF" transform="translate(660,900)"></path>
<path d="M0 0 C3 1 3 1 3 1 Z " fill="#FFFFFF" transform="translate(767,1085)"></path>
<path d="" fill="#FFFFFF" transform="translate(0,0)"></path>
</svg>
